<svg width="10" height="6" viewBox="0 0 10 6" fill="none" xmlns="http://www.w3.org/2000/svg">
<path d="M4.75999 2L3.79999 3H5.39999L4.43999 4M1.8 1H7.4C7.84183 1 8.2 1.29848 8.2 1.66667V4.33333C8.2 4.70152 7.84183 5 7.4 5H1.8C1.35817 5 1 4.70152 1 4.33333V1.66667C1 1.29848 1.35817 1 1.8 1ZM8.19999 2.33333H8.79999C8.85303 2.33333 8.9039 2.35089 8.94141 2.38215C8.97892 2.4134 8.99999 2.4558 8.99999 2.5V3.5C8.99999 3.5442 8.97892 3.5866 8.94141 3.61785C8.9039 3.64911 8.85303 3.66667 8.79999 3.66667H8.19999V2.33333Z" stroke="#69EF86" stroke-width="0.666667" stroke-linecap="round" stroke-linejoin="round"/>
</svg>
