<svg width="8" height="8" viewBox="0 0 8 8" fill="none" xmlns="http://www.w3.org/2000/svg">
<path d="M4 0C4.09361 0 4.18338 0.0371847 4.24957 0.103374C4.31576 0.169563 4.35294 0.259335 4.35294 0.352941V0.823529C4.35294 0.917135 4.31576 1.00691 4.24957 1.0731C4.18338 1.13929 4.09361 1.17647 4 1.17647C3.90639 1.17647 3.81662 1.13929 3.75043 1.0731C3.68424 1.00691 3.64706 0.917135 3.64706 0.823529V0.352941C3.64706 0.259335 3.68424 0.169563 3.75043 0.103374C3.81662 0.0371847 3.90639 0 4 0ZM4 6.35294C4.62404 6.35294 5.22252 6.10504 5.66378 5.66378C6.10504 5.22252 6.35294 4.62404 6.35294 4C6.35294 3.37596 6.10504 2.77748 5.66378 2.33622C5.22252 1.89496 4.62404 1.64706 4 1.64706C3.37596 1.64706 2.77748 1.89496 2.33622 2.33622C1.89496 2.77748 1.64706 3.37596 1.64706 4C1.64706 4.62404 1.89496 5.22252 2.33622 5.66378C2.77748 6.10504 3.37596 6.35294 4 6.35294ZM4 5.64706C3.78371 5.64706 3.56953 5.60446 3.3697 5.52168C3.16987 5.43891 2.9883 5.31759 2.83535 5.16465C2.68241 5.0117 2.56109 4.83013 2.47832 4.6303C2.39554 4.43047 2.35294 4.21629 2.35294 4C2.35294 3.78371 2.39554 3.56953 2.47832 3.3697C2.56109 3.16987 2.68241 2.9883 2.83535 2.83535C2.9883 2.68241 3.16987 2.56109 3.3697 2.47832C3.56953 2.39554 3.78371 2.35294 4 2.35294C4.43683 2.35294 4.85576 2.52647 5.16465 2.83535C5.47353 3.14424 5.64706 3.56317 5.64706 4C5.64706 4.43683 5.47353 4.85576 5.16465 5.16465C4.85576 5.47353 4.43683 5.64706 4 5.64706ZM7.64706 4.35294C7.74066 4.35294 7.83044 4.31576 7.89663 4.24957C7.96282 4.18338 8 4.09361 8 4C8 3.90639 7.96282 3.81662 7.89663 3.75043C7.83044 3.68424 7.74066 3.64706 7.64706 3.64706H7.17647C7.08286 3.64706 6.99309 3.68424 6.9269 3.75043C6.86071 3.81662 6.82353 3.90639 6.82353 4C6.82353 4.09361 6.86071 4.18338 6.9269 4.24957C6.99309 4.31576 7.08286 4.35294 7.17647 4.35294H7.64706ZM4 6.82353C4.09361 6.82353 4.18338 6.86071 4.24957 6.9269C4.31576 6.99309 4.35294 7.08286 4.35294 7.17647V7.64706C4.35294 7.74066 4.31576 7.83044 4.24957 7.89663C4.18338 7.96282 4.09361 8 4 8C3.90639 8 3.81662 7.96282 3.75043 7.89663C3.68424 7.83044 3.64706 7.74066 3.64706 7.64706V7.17647C3.64706 7.08286 3.68424 6.99309 3.75043 6.9269C3.81662 6.86071 3.90639 6.82353 4 6.82353ZM0.823529 4.35294C0.917135 4.35294 1.00691 4.31576 1.0731 4.24957C1.13929 4.18338 1.17647 4.09361 1.17647 4C1.17647 3.90639 1.13929 3.81662 1.0731 3.75043C1.00691 3.68424 0.917135 3.64706 0.823529 3.64706H0.352941C0.259335 3.64706 0.169563 3.68424 0.103374 3.75043C0.0371847 3.81662 0 3.90639 0 4C0 4.09361 0.0371847 4.18338 0.103374 4.24957C0.169563 4.31576 0.259335 4.35294 0.352941 4.35294H0.823529ZM1.28 1.28C1.34618 1.21391 1.43588 1.17678 1.52941 1.17678C1.62294 1.17678 1.71265 1.21391 1.77882 1.28L2.01412 1.51529C2.07646 1.5822 2.1104 1.67069 2.10879 1.76213C2.10717 1.85356 2.07013 1.9408 2.00547 2.00547C1.9408 2.07013 1.85356 2.10717 1.76213 2.10879C1.67069 2.1104 1.5822 2.07646 1.51529 2.01412L1.28 1.77882C1.21391 1.71265 1.17678 1.62294 1.17678 1.52941C1.17678 1.43588 1.21391 1.34618 1.28 1.28ZM1.77882 6.72C1.71192 6.78234 1.62343 6.81628 1.53199 6.81467C1.44055 6.81306 1.35331 6.77602 1.28865 6.71135C1.22398 6.64669 1.18694 6.55945 1.18533 6.46801C1.18372 6.37657 1.21766 6.28808 1.28 6.22118L1.51529 5.98588C1.5822 5.92354 1.67069 5.8896 1.76213 5.89121C1.85356 5.89283 1.9408 5.92987 2.00547 5.99453C2.07013 6.0592 2.10717 6.14644 2.10879 6.23787C2.1104 6.32931 2.07646 6.4178 2.01412 6.48471L1.77882 6.72ZM6.72 1.28C6.65382 1.21391 6.56412 1.17678 6.47059 1.17678C6.37706 1.17678 6.28735 1.21391 6.22118 1.28L5.98588 1.51529C5.92354 1.5822 5.8896 1.67069 5.89121 1.76213C5.89283 1.85356 5.92987 1.9408 5.99453 2.00547C6.0592 2.07013 6.14644 2.10717 6.23787 2.10879C6.32931 2.1104 6.4178 2.07646 6.48471 2.01412L6.72 1.77882C6.78609 1.71265 6.82322 1.62294 6.82322 1.52941C6.82322 1.43588 6.78609 1.34618 6.72 1.28ZM6.22118 6.72C6.25349 6.75468 6.29245 6.78249 6.33575 6.80178C6.37904 6.82107 6.42578 6.83144 6.47317 6.83228C6.52056 6.83311 6.56763 6.8244 6.61158 6.80665C6.65552 6.7889 6.69544 6.76247 6.72896 6.72896C6.76247 6.69544 6.7889 6.65552 6.80665 6.61158C6.8244 6.56763 6.83311 6.52056 6.83228 6.47317C6.83144 6.42578 6.82107 6.37904 6.80178 6.33575C6.78249 6.29245 6.75468 6.25349 6.72 6.22118L6.48471 5.98588C6.45239 5.95121 6.41343 5.92339 6.37014 5.9041C6.32684 5.88481 6.28011 5.87444 6.23272 5.8736C6.18533 5.87277 6.13825 5.88149 6.09431 5.89924C6.05036 5.91699 6.01044 5.94341 5.97692 5.97692C5.94341 6.01044 5.91699 6.05036 5.89924 6.09431C5.88149 6.13825 5.87277 6.18533 5.8736 6.23272C5.87444 6.28011 5.88481 6.32684 5.9041 6.37014C5.92339 6.41343 5.95121 6.45239 5.98588 6.48471L6.22118 6.72Z" fill="#5CC4FF"/>
</svg>
