<svg width="8" height="8" viewBox="0 0 8 8" fill="none" xmlns="http://www.w3.org/2000/svg">
<path d="M3.83335 1C4.67321 1 5.47866 1.33363 6.07253 1.9275C6.66639 2.52136 7.00002 3.32681 7.00002 4.16667C7.00002 5.00652 6.66639 5.81197 6.07253 6.40584C5.47866 6.9997 4.67321 7.33333 3.83335 7.33333C2.9935 7.33333 2.18805 6.9997 1.59418 6.40584C1.00032 5.81197 0.666687 5.00652 0.666687 4.16667C0.666687 3.32681 1.00032 2.52136 1.59418 1.9275C2.18805 1.33363 2.9935 1 3.83335 1ZM3.83335 1.33333C3.08191 1.33333 2.36124 1.63184 1.82988 2.1632C1.29853 2.69455 1.00002 3.41522 1.00002 4.16667C1.00002 4.91811 1.29853 5.63878 1.82988 6.17014C2.36124 6.70149 3.08191 7 3.83335 7C4.20543 7 4.57387 6.92671 4.91762 6.78433C5.26138 6.64194 5.57372 6.43324 5.83682 6.17014C6.09992 5.90704 6.30862 5.59469 6.45101 5.25094C6.5934 4.90718 6.66669 4.53875 6.66669 4.16667C6.66669 3.41522 6.36818 2.69455 5.83682 2.1632C5.30547 1.63184 4.5848 1.33333 3.83335 1.33333ZM3.66669 2.33333H4.00002V4.14L5.56669 5.04333L5.40002 5.33333L3.66669 4.33333V2.33333Z" fill="black"/>
</svg>
