<svg width="6" height="6" viewBox="0 0 6 6" fill="none" xmlns="http://www.w3.org/2000/svg">
<g clip-path="url(#clip0_6_41)">
<path fill-rule="evenodd" clip-rule="evenodd" d="M5.10637 1.4415C5.06904 1.32412 5.01184 1.21402 4.93725 1.116L5.445 0.606L5.214 0.375L4.704 0.88275C4.60598 0.808076 4.49588 0.750746 4.3785 0.71325C4.11628 0.626108 3.83148 0.63609 3.576 0.741375C3.43685 0.79893 3.31053 0.88357 3.20438 0.990375L2.625 1.572L4.24762 3.195L4.82963 2.61562C4.93725 2.508 5.02012 2.38387 5.07825 2.24362C5.1835 1.98814 5.19348 1.70335 5.10637 1.44112V1.4415ZM4.773 2.118C4.73226 2.21698 4.67221 2.30685 4.59637 2.38238L4.24762 2.73112L3.08888 1.57237L3.43762 1.22363C3.51301 1.14769 3.60275 1.08752 3.70163 1.04662C3.80182 1.00394 3.90967 0.982157 4.01858 0.982608C4.12749 0.983059 4.23516 1.00574 4.335 1.04925C4.434 1.092 4.52025 1.15087 4.59375 1.22625C4.66875 1.29937 4.728 1.386 4.77075 1.485C4.81421 1.58479 4.83686 1.69239 4.83731 1.80123C4.83776 1.91007 4.81601 2.01786 4.77338 2.118H4.773ZM2.964 3.99075L3.5205 3.41138L3.2895 3.17813L2.73075 3.75975L2.03325 3.06262L2.59238 2.48062L2.35912 2.25L1.803 2.82938L1.572 2.59875L0.990375 3.17813C0.883178 3.28489 0.798617 3.41218 0.74175 3.55237C0.683819 3.69125 0.654117 3.84027 0.654375 3.99075C0.654375 4.11525 0.673125 4.23675 0.710625 4.3545C0.75 4.47075 0.807375 4.57837 0.88275 4.67775L0.375 5.18775L0.605625 5.41838L1.11562 4.911C1.215 4.986 1.32262 5.04338 1.43887 5.08275C1.55663 5.12025 1.67813 5.139 1.80263 5.139C1.95488 5.139 2.10113 5.11013 2.24138 5.052C2.38313 4.99388 2.50762 4.911 2.61562 4.80338L3.195 4.22137L2.964 3.99075ZM2.11575 4.74937C2.0166 4.79039 1.91029 4.81129 1.803 4.81087C1.69012 4.81087 1.58325 4.7895 1.48238 4.74713C1.38519 4.70555 1.29656 4.64629 1.221 4.57237C1.14723 4.49677 1.0881 4.40815 1.04662 4.311C1.00393 4.20966 0.982238 4.10071 0.982875 3.99075C0.982459 3.88302 1.00354 3.77629 1.04488 3.67681C1.08622 3.57732 1.14698 3.48708 1.22363 3.41138L1.57237 3.06262L2.73112 4.22137L2.38238 4.57013C2.30598 4.64662 2.21542 4.7075 2.11575 4.74937Z" fill="#9747FF"/>
</g>
<defs>
<clipPath id="clip0_6_41">
<rect width="6" height="6" fill="white"/>
</clipPath>
</defs>
</svg>
