<svg width="6" height="8" viewBox="0 0 6 8" fill="none" xmlns="http://www.w3.org/2000/svg">
<path d="M5.28571 3.06667V2.13333C5.28571 1.56754 5.0449 1.02492 4.61624 0.624839C4.18759 0.224761 3.60621 0 3 0C2.39379 0 1.81241 0.224761 1.38376 0.624839C0.955101 1.02492 0.714286 1.56754 0.714286 2.13333V3.06667H0V5.2C0 6.74392 1.34579 8 3 8C4.65421 8 6 6.74392 6 5.2V3.06667H5.28571ZM1.28571 2.13333C1.28571 1.70899 1.46633 1.30202 1.78782 1.00196C2.10931 0.701904 2.54534 0.533333 3 0.533333C3.45466 0.533333 3.89069 0.701904 4.21218 1.00196C4.53367 1.30202 4.71429 1.70899 4.71429 2.13333V3.06667H1.28571V2.13333ZM5.42857 5.2C5.42857 6.44983 4.33911 7.46667 3 7.46667C1.66089 7.46667 0.571429 6.44983 0.571429 5.2V3.6H5.42857V5.2Z" fill="#5CC4FF"/>
</svg>
