<svg width="8" height="8" viewBox="0 0 8 8" fill="none" xmlns="http://www.w3.org/2000/svg">
<path d="M7.162 6.04651H6.52145C6.47771 6.04651 6.43671 6.06605 6.40937 6.10047C6.34559 6.17954 6.27725 6.25582 6.20527 6.32837C5.91087 6.62924 5.56214 6.86901 5.17838 7.03442C4.7808 7.20586 4.35347 7.29381 3.92188 7.29302C3.48543 7.29302 3.06265 7.20558 2.66538 7.03442C2.28162 6.86901 1.93289 6.62924 1.63849 6.32837C1.34356 6.02853 1.10838 5.67313 0.945998 5.28187C0.777431 4.87628 0.692692 4.44559 0.692692 4.00001C0.692692 3.55443 0.778342 3.12373 0.945998 2.71815C1.10819 2.32652 1.34145 1.97396 1.63849 1.67164C1.93553 1.36931 2.28086 1.13117 2.66538 0.965594C3.06265 0.794431 3.48543 0.70699 3.92188 0.70699C4.35833 0.70699 4.78111 0.793501 5.17838 0.965594C5.5629 1.13117 5.90823 1.36931 6.20527 1.67164C6.27725 1.74513 6.34468 1.82141 6.40937 1.89955C6.43671 1.93396 6.47862 1.9535 6.52145 1.9535H7.162C7.21941 1.9535 7.25494 1.88838 7.22305 1.83908C6.52418 0.730245 5.30139 -0.00370684 3.91186 1.40825e-05C1.72869 0.00559547 -0.0216654 1.81489 0.000202694 4.04094C0.0220708 6.23163 1.7697 8 3.92188 8C5.30777 8 6.52509 7.26698 7.22305 6.16093C7.25403 6.11163 7.21941 6.04651 7.162 6.04651ZM7.97203 3.9414L6.67908 2.89954C6.63079 2.86047 6.56063 2.89582 6.56063 2.95815V3.66512H3.69955C3.65946 3.66512 3.62666 3.69861 3.62666 3.73954V4.26047C3.62666 4.3014 3.65946 4.33489 3.69955 4.33489H6.56063V5.04187C6.56063 5.10419 6.6317 5.13954 6.67908 5.10047L7.97203 4.05861C7.98074 4.05165 7.98779 4.04276 7.99264 4.0326C7.99748 4.02245 8 4.0113 8 4.00001C8 3.98871 7.99748 3.97757 7.99264 3.96741C7.98779 3.95726 7.98074 3.94836 7.97203 3.9414V3.9414Z" fill="#FF6060"/>
</svg>
