<svg width="8" height="8" viewBox="0 0 8 8" fill="none" xmlns="http://www.w3.org/2000/svg">
<path d="M0 0.75C0 0.335786 0.335786 0 0.75 0H7.25C7.66421 0 8 0.335786 8 0.75C8 1.16421 7.66421 1.5 7.25 1.5H0.75C0.335786 1.5 0 1.16421 0 0.75Z" fill="#6E36C9"/>
<path d="M2 3.75C2 3.33579 2.33579 3 2.75 3H5.25C5.66421 3 6 3.33579 6 3.75C6 4.16421 5.66421 4.5 5.25 4.5H2.75C2.33579 4.5 2 4.16421 2 3.75Z" fill="#6E36C9"/>
<path d="M0 6.75C0 6.33579 0.335786 6 0.75 6H7.25C7.66421 6 8 6.33579 8 6.75C8 7.16421 7.66421 7.5 7.25 7.5H0.75C0.335786 7.5 0 7.16421 0 6.75Z" fill="#6E36C9"/>
</svg>
