<svg width="8" height="8" viewBox="0 0 8 8" fill="none" xmlns="http://www.w3.org/2000/svg">
<path d="M2.0296 0.9312C2.0502 0.959298 2.06507 0.991181 2.07334 1.02503C2.08162 1.05887 2.08315 1.09402 2.07783 1.12845C2.07252 1.16289 2.06048 1.19594 2.04239 1.22572C2.02429 1.2555 2.00051 1.28142 1.9724 1.302C1.0764 1.9588 0.5312 3.01 0.5312 4.114C0.5312 5.9324 2.1356 7.4696 4.0028 7.4696C5.8688 7.4696 7.4688 5.9336 7.4688 4.1136C7.4688 3.0216 6.9368 1.9812 6.0596 1.3232C6.03176 1.30227 6.00832 1.27606 5.9906 1.24606C5.97289 1.21607 5.96126 1.18288 5.95638 1.14839C5.9515 1.11391 5.95345 1.07879 5.96214 1.04506C5.97082 1.01133 5.98607 0.97964 6.007 0.9518C6.02793 0.92396 6.05414 0.900515 6.08414 0.882805C6.11413 0.865094 6.14732 0.853465 6.18181 0.848581C6.21629 0.843696 6.25141 0.845652 6.28514 0.854338C6.31887 0.863023 6.35056 0.878267 6.3784 0.8992C7.388 1.656 8 2.8524 8 4.1132C8 6.2312 6.1572 8 4.0028 8C1.8472 8 0 6.2304 0 4.1136C0 2.8388 0.6276 1.6296 1.6584 0.8744C1.71516 0.832726 1.78615 0.815298 1.85576 0.825949C1.92537 0.836601 1.9879 0.874459 2.0296 0.9312V0.9312ZM4 0C4.07426 0 4.14548 0.0294999 4.19799 0.0820101C4.2505 0.13452 4.28 0.205739 4.28 0.28V3.4C4.28 3.47426 4.2505 3.54548 4.19799 3.59799C4.14548 3.6505 4.07426 3.68 4 3.68C3.92574 3.68 3.85452 3.6505 3.80201 3.59799C3.7495 3.54548 3.72 3.47426 3.72 3.4V0.28C3.72 0.24323 3.72724 0.20682 3.74131 0.172849C3.75538 0.138877 3.77601 0.108011 3.80201 0.0820101C3.82801 0.0560097 3.85888 0.035385 3.89285 0.0213137C3.92682 0.00724241 3.96323 0 4 0V0Z" fill="#6E36C9"/>
</svg>
