<svg width="7" height="8" viewBox="0 0 7 8" fill="none" xmlns="http://www.w3.org/2000/svg">
<path d="M6.41667 4.68965C6.41667 5.23526 6.24561 5.76861 5.92512 6.22226C5.60463 6.67591 5.14911 7.02949 4.61616 7.23829C4.08321 7.44708 3.49677 7.50171 2.93099 7.39527C2.36521 7.28883 1.84551 7.02609 1.43761 6.64029C1.0297 6.25449 0.751918 5.76295 0.639378 5.22783C0.526838 4.69271 0.584597 4.13805 0.805353 3.63398C1.02611 3.1299 1.39994 2.69907 1.87959 2.39595C2.35923 2.09282 2.92314 1.93103 3.5 1.93103H5.30308L4.25775 2.92L4.66667 3.31034L6.41667 1.65517L4.66667 0L4.25775 0.390069L5.30396 1.37931H3.5C2.80777 1.37931 2.13108 1.57346 1.55551 1.9372C0.979934 2.30095 0.53133 2.81795 0.266423 3.42284C0.0015165 4.02773 -0.0677952 4.69333 0.0672531 5.33547C0.202301 5.97761 0.535644 6.56746 1.02513 7.03042C1.51461 7.49338 2.13825 7.80866 2.81718 7.93639C3.49612 8.06412 4.19985 7.99857 4.83939 7.74801C5.47893 7.49746 6.02556 7.07317 6.41014 6.52878C6.79473 5.9844 7 5.34438 7 4.68965H6.41667Z" fill="#69EF86"/>
</svg>
