<svg width="8" height="8" viewBox="0 0 8 8" fill="none" xmlns="http://www.w3.org/2000/svg">
<path d="M5.31856 0.443882C5.31844 0.360238 5.29479 0.278325 5.25033 0.207556C5.20588 0.136787 5.14241 0.0800347 5.06723 0.0438211C4.99206 0.00760745 4.90822 -0.00659801 4.82535 0.00283753C4.74248 0.0122731 4.66395 0.0449665 4.59878 0.0971607L2.50415 1.77743H0.443213C0.325666 1.77743 0.212933 1.82426 0.129814 1.90762C0.0466956 1.99098 0 2.10405 0 2.22194V5.77806C0 5.89595 0.0466956 6.00902 0.129814 6.09238C0.212933 6.17574 0.325666 6.22257 0.443213 6.22257H2.50415L4.59878 7.90284C4.66395 7.95503 4.74248 7.98773 4.82535 7.99716C4.90822 8.0066 4.99206 7.99239 5.06723 7.95618C5.14241 7.91997 5.20588 7.86321 5.25033 7.79244C5.29479 7.72168 5.31844 7.63976 5.31856 7.55612V0.443882ZM2.93584 2.56866L4.43213 1.36847V6.63153L2.93584 5.43134C2.85739 5.36821 2.75986 5.33372 2.65928 5.33354H0.886426V2.66646H2.65928C2.75986 2.66628 2.85739 2.63179 2.93584 2.56866ZM8 4C8.00068 4.52547 7.89782 5.0459 7.69732 5.53138C7.49682 6.01685 7.20264 6.4578 6.83169 6.82889L6.20498 6.20035C6.4935 5.91171 6.7223 5.56873 6.87823 5.19112C7.03415 4.81351 7.11413 4.40871 7.11357 4C7.11408 3.5913 7.03408 3.18652 6.87816 2.80891C6.72223 2.43131 6.49346 2.08832 6.20498 1.79965L6.83169 1.17111C7.20264 1.5422 7.49682 1.98315 7.69732 2.46862C7.89782 2.9541 8.00068 3.47453 8 4Z" fill="#FF6060"/>
</svg>
